<?xml version="1.0" standalone="no"?>
<!DOCTYPE svg PUBLIC "-//W3C//DTD SVG 20010904//EN"
 "http://www.w3.org/TR/2001/REC-SVG-20010904/DTD/svg10.dtd">
<svg version="1.0" xmlns="http://www.w3.org/2000/svg"
 width="180.000000pt" height="180.000000pt" viewBox="0 0 180.000000 180.000000"
 preserveAspectRatio="xMidYMid meet">
<metadata>
Created by potrace 1.11, written by Peter Selinger 2001-2013
</metadata>
<g transform="translate(0.000000,180.000000) scale(0.100000,-0.100000)"
fill="#000000" stroke="none">
<path d="M857 1744 c-1 -1 -24 -5 -52 -8 -161 -22 -323 -114 -427 -246 -131
-165 -173 -372 -119 -592 13 -56 77 -176 124 -233 248 -304 701 -331 979 -58
72 69 92 96 132 178 62 126 84 269 63 409 -10 61 -61 196 -87 229 -11 14 -20
28 -20 31 0 3 -10 18 -22 32 -107 127 -245 214 -378 240 -14 3 -36 7 -50 10
-26 5 -139 12 -143 8z m152 -239 c108 -28 235 -125 274 -207 41 -86 43 -93 53
-180 6 -59 -11 -184 -27 -194 -5 -3 -9 -12 -9 -20 0 -20 -53 -97 -94 -137
-167 -162 -447 -163 -608 -2 -54 54 -59 61 -86 110 -88 163 -58 376 71 506
114 116 277 164 426 124z"/>
<path d="M465 266 c-2 -6 -3 -56 -2 -111 l2 -100 430 0 c237 0 435 1 440 2 8
3 13 147 6 210 -1 17 -871 16 -876 -1z"/>
</g>
</svg>
