<svg xmlns="http://www.w3.org/2000/svg" viewBox="0 0 381.6 99.3"><defs><style>.cls-1{fill:#ef7d4a}.cls-2{fill:#fff}</style></defs><title>Layer 1</title><g id="Layer_2" data-name="Layer 2"><g id="Layer_1-2" data-name="Layer 1"><path class="cls-1" d="M13.2 85.1h51V98h-51z"/><path class="cls-2" d="M381.6 54v-4h-12.7v4c0 9.2-4.7 13.8-10.2 13.8h-2.5c-5.5 0-10.1-4.6-10.2-13.8v-4h-12.7v4c.1 9.5 3.2 16 8.9 19.7-5.6 3.7-8.9 10.3-8.9 19.8v4.6H346v-4.6c0-9.2 4.7-13.8 10.2-13.8h2.5c5.5 0 10.2 4.6 10.2 13.8v4.6h12.7v-4.6c0-9.5-3.2-16.1-8.9-19.8 5.6-3.6 8.9-10.2 8.9-19.7zM174.2 69.2V98h-12.8V72.1c0-6.7-3.1-11.8-9.5-11.8-6.7 0-12.8 5.6-12.8 13.7v24h-12.8V72.1c0-6.7-3.1-11.8-9.5-11.8-6.7 0-12.7 5.6-12.7 13.7v24H91.3V50h12.8v5.4a21.87 21.87 0 0 1 16.1-6.8c7.7 0 13.6 3.7 16.6 9.8a22.28 22.28 0 0 1 18.6-9.8c11.4 0 18.8 8.2 18.8 20.6zm62.2 0V98h-12.7V72.1c0-6.6-3.4-11.8-9.8-11.8-6.8 0-12.8 5.6-12.8 13.7v24h-13V50h12.8v5.4a21.93 21.93 0 0 1 16.2-6.8c11.6 0 19.3 8.2 19.3 20.6zM249.7 50h12.8v48h-12.8zm73 28.2l-35.9.1c1.7 6.4 6.6 11 14.2 11 5.3 0 9.5-2.3 13.4-5.2l6.8 7.4c-5 4.9-12.6 7.8-20.8 7.8-15.6 0-26.3-10.8-26.3-25.7s10.6-25.2 25.4-25.2c14.2 0 23.5 9.2 23.5 23.6a33.38 33.38 0 0 1-.3 6.2zm-35.8-10h24.4c-1.3-6.2-5.8-9.6-11.6-9.6a12.78 12.78 0 0 0-12.8 9.6zM38.5 77A38.5 38.5 0 1 1 77 38.5 38.54 38.54 0 0 1 38.5 77zm0-64A25.5 25.5 0 1 0 64 38.5 25.53 25.53 0 0 0 38.5 13z"/></g></g></svg>